<svg xmlns="http://www.w3.org/2000/svg" viewBox="0 0 1200 630" role="img" aria-labelledby="title desc">
  <title id="title">WSI Labs social preview image</title>
  <desc id="desc">A social sharing image for World Superintelligence Labs.</desc>
  <rect width="1200" height="630" fill="#ffffff"/>
  <rect x="56" y="56" width="1088" height="518" fill="#ffffff" stroke="#e7e7e7" stroke-width="2"/>
  <g transform="translate(86 110) scale(0.72)">
    <polygon points="24.00,48.01 117.47,328.12 186.56,305.06 93.08,24.95" fill="#050505"/>
    <polygon points="183.40,335.05 288.81,155.78 226.03,118.86 120.62,298.13" fill="#050505"/>
    <polygon points="226.03,155.78 331.43,335.05 394.21,298.13 288.81,118.86" fill="#050505"/>
    <polygon points="397.37,328.12 468.40,115.23 399.32,92.18 328.28,305.06" fill="#050505"/>
    <polygon points="470.48,109.02 488.00,56.51 418.92,33.46 401.40,85.96" fill="#0077ff"/>
  </g>
  <text x="86" y="460" font-family="Inter, Arial, sans-serif" font-size="24" font-weight="750" fill="#050505" letter-spacing="0">WSI Labs</text>
  <text x="86" y="496" font-family="ui-monospace, SFMono-Regular, Menlo, Consolas, monospace" font-size="18" fill="#707070" letter-spacing="0">World Superintelligence Labs</text>
  <text x="484" y="228" font-family="Georgia, 'Times New Roman', Times, serif" font-size="70" font-weight="400" fill="#050505" letter-spacing="0">World</text>
  <text x="484" y="304" font-family="Georgia, 'Times New Roman', Times, serif" font-size="70" font-weight="400" fill="#050505" letter-spacing="0">Superintelligence</text>
  <text x="488" y="370" font-family="ui-monospace, SFMono-Regular, Menlo, Consolas, monospace" font-size="18" fill="#707070" letter-spacing="0">build world model with superintelligence step by step</text>
  <rect x="488" y="416" width="58" height="6" fill="#0077ff"/>
</svg>
